<svg width="101" height="29" viewBox="0 0 101 29" fill="none" xmlns="http://www.w3.org/2000/svg">
<path d="M35.4128 11.3412H32.024V8.75151C32.024 8.50918 31.8189 8.31357 31.5648 8.31357H30.8975C30.6434 8.31357 30.4383 8.50918 30.4383 8.75151V11.3412H28.8955C28.6414 11.3412 28.4363 11.5368 28.4363 11.7791V12.4156C28.4363 12.658 28.6414 12.8535 28.8955 12.8535H30.4383V21.0226C30.4383 22.7919 31.9352 24.2342 33.7751 24.2342H33.7904C34.522 24.2342 35.0852 24.1903 35.474 24.1437C35.7036 24.1174 35.8719 23.9305 35.8719 23.7086V23.1977C35.8719 22.9379 35.6333 22.7335 35.3638 22.7627C34.9261 22.8123 34.4056 22.8473 33.9863 22.8473C32.9057 22.8473 32.024 22.0065 32.024 20.9759V12.8535H35.4128C35.6669 12.8535 35.8719 12.658 35.8719 12.4156V11.7791C35.8719 11.5368 35.6669 11.3412 35.4128 11.3412Z" fill="#23B8CC"/>
<path d="M35.4128 11.3412H32.024V8.75151C32.024 8.50918 31.8189 8.31357 31.5648 8.31357H30.8975C30.6434 8.31357 30.4383 8.50918 30.4383 8.75151V11.3412H28.8955C28.6414 11.3412 28.4363 11.5368 28.4363 11.7791V12.4156C28.4363 12.658 28.6414 12.8535 28.8955 12.8535H30.4383V21.0226C30.4383 22.7919 31.9352 24.2342 33.7751 24.2342H33.7904C34.522 24.2342 35.0852 24.1903 35.474 24.1437C35.7036 24.1174 35.8719 23.9305 35.8719 23.7086V23.1977C35.8719 22.9379 35.6333 22.7335 35.3638 22.7627C34.9261 22.8123 34.4056 22.8473 33.9863 22.8473C32.9057 22.8473 32.024 22.0065 32.024 20.9759V12.8535H35.4128C35.6669 12.8535 35.8719 12.658 35.8719 12.4156V11.7791C35.8719 11.5368 35.6669 11.3412 35.4128 11.3412Z" stroke="#23B8CC"/>
<path d="M99.3997 11.133C95.9559 11.133 94.9702 13.8454 94.9702 13.8454V11.6907C94.9702 11.4805 94.7926 11.3111 94.5721 11.3111H93.7824C93.562 11.3111 93.3845 11.4805 93.3845 11.6907V23.6961C93.3845 23.9063 93.562 24.0756 93.7824 24.0756H94.5721C94.7926 24.0756 94.9702 23.9063 94.9702 23.6961V16.6715C94.9702 16.4818 95.0497 12.6279 99.3997 12.6279H99.6018C99.8222 12.6279 99.9998 12.4584 99.9998 12.2483V11.5184C99.9998 11.314 99.8314 11.1476 99.6171 11.1359C99.5804 11.1359 99.5445 11.1351 99.5084 11.1344C99.4725 11.1337 99.4365 11.133 99.3997 11.133Z" fill="#23B8CC"/>
<path d="M99.3997 11.133C95.9559 11.133 94.9702 13.8454 94.9702 13.8454V11.6907C94.9702 11.4805 94.7926 11.3111 94.5721 11.3111H93.7824C93.562 11.3111 93.3845 11.4805 93.3845 11.6907V23.6961C93.3845 23.9063 93.562 24.0756 93.7824 24.0756H94.5721C94.7926 24.0756 94.9702 23.9063 94.9702 23.6961V16.6715C94.9702 16.4818 95.0497 12.6279 99.3997 12.6279H99.6018C99.8222 12.6279 99.9998 12.4584 99.9998 12.2483V11.5184C99.9998 11.314 99.8314 11.1476 99.6171 11.1359C99.5804 11.1359 99.5445 11.1351 99.5084 11.1344C99.4725 11.1337 99.4365 11.133 99.3997 11.133Z" stroke="#23B8CC"/>
<path d="M68.2684 11.032C66.1164 11.032 64.1418 12.0072 62.847 13.7093L62.5715 14.0713V6.58541C62.5715 6.34308 62.3664 6.14747 62.1123 6.14747H61.4449C61.1908 6.14747 60.9857 6.34308 60.9857 6.58249V23.6417C60.9857 23.884 61.1908 24.0768 61.4449 24.0768H62.1123C62.3664 24.0768 62.5715 23.8811 62.5715 23.6388V21.3966L62.847 21.7586C64.1418 23.4608 66.1194 24.4358 68.2684 24.4358C72.0061 24.4358 75.049 21.4287 75.049 17.7325C75.049 14.0392 72.0061 11.032 68.2684 11.032ZM68.0602 23.0462C65.4643 23.0462 63.1928 21.274 62.6663 18.8302C62.5898 18.474 62.5501 18.1091 62.5501 17.7441C62.5501 17.3792 62.5898 17.0142 62.6663 16.6581C63.196 14.2173 65.4643 12.4421 68.0602 12.4421C71.1 12.4421 73.5704 14.8187 73.5704 17.7412C73.5704 20.6637 71.1 23.0462 68.0602 23.0462Z" fill="#23B8CC"/>
<path d="M68.2684 11.032C66.1164 11.032 64.1418 12.0072 62.847 13.7093L62.5715 14.0713V6.58541C62.5715 6.34308 62.3664 6.14747 62.1123 6.14747H61.4449C61.1908 6.14747 60.9857 6.34308 60.9857 6.58249V23.6417C60.9857 23.884 61.1908 24.0768 61.4449 24.0768H62.1123C62.3664 24.0768 62.5715 23.8811 62.5715 23.6388V21.3966L62.847 21.7586C64.1418 23.4608 66.1194 24.4358 68.2684 24.4358C72.0061 24.4358 75.049 21.4287 75.049 17.7325C75.049 14.0392 72.0061 11.032 68.2684 11.032ZM68.0602 23.0462C65.4643 23.0462 63.1928 21.274 62.6663 18.8302C62.5898 18.474 62.5501 18.1091 62.5501 17.7441C62.5501 17.3792 62.5898 17.0142 62.6663 16.6581C63.196 14.2173 65.4643 12.4421 68.0602 12.4421C71.1 12.4421 73.5704 14.8187 73.5704 17.7412C73.5704 20.6637 71.1 23.0462 68.0602 23.0462Z" stroke="#23B8CC"/>
<path d="M51.8317 11.032C49.6796 11.032 47.7051 12.0072 46.4103 13.7093L46.1348 14.0713V6.58541C46.1348 6.34308 45.9297 6.14747 45.6755 6.14747H45.0082C44.7541 6.14747 44.549 6.34308 44.549 6.58541V23.6417C44.549 23.884 44.7541 24.0797 45.0082 24.0797H45.6755C45.9297 24.0797 46.1348 23.884 46.1348 23.6417V21.3995L46.4103 21.7616C47.7051 23.4636 49.6827 24.4388 51.8317 24.4388C55.5694 24.4388 58.6123 21.4316 58.6123 17.7354C58.6123 14.0392 55.5694 11.032 51.8317 11.032ZM51.6174 23.0461C49.0184 23.0461 46.7471 21.274 46.2174 18.8302C46.1409 18.474 46.101 18.1091 46.101 17.7441C46.101 17.3792 46.1409 17.0142 46.2174 16.6581C46.7471 14.2173 49.0184 12.4421 51.6174 12.4421C54.6602 12.4421 57.1337 14.8187 57.1337 17.7412C57.1337 20.6637 54.6602 23.0461 51.6174 23.0461Z" fill="#23B8CC"/>
<path d="M51.8317 11.032C49.6796 11.032 47.7051 12.0072 46.4103 13.7093L46.1348 14.0713V6.58541C46.1348 6.34308 45.9297 6.14747 45.6755 6.14747H45.0082C44.7541 6.14747 44.549 6.34308 44.549 6.58541V23.6417C44.549 23.884 44.7541 24.0797 45.0082 24.0797H45.6755C45.9297 24.0797 46.1348 23.884 46.1348 23.6417V21.3995L46.4103 21.7616C47.7051 23.4636 49.6827 24.4388 51.8317 24.4388C55.5694 24.4388 58.6123 21.4316 58.6123 17.7354C58.6123 14.0392 55.5694 11.032 51.8317 11.032ZM51.6174 23.0461C49.0184 23.0461 46.7471 21.274 46.2174 18.8302C46.1409 18.474 46.101 18.1091 46.101 17.7441C46.101 17.3792 46.1409 17.0142 46.2174 16.6581C46.7471 14.2173 49.0184 12.4421 51.6174 12.4421C54.6603 12.4421 57.1337 14.8187 57.1337 17.7412C57.1337 20.6637 54.6603 23.0461 51.6174 23.0461Z" stroke="#23B8CC"/>
<path d="M40.013 6.43027C39.3549 6.43027 38.8222 6.94121 38.8222 7.56601C38.8222 8.1908 39.3579 8.70173 40.013 8.70173C40.6712 8.70173 41.2039 8.1908 41.2039 7.56601C41.2039 6.94121 40.6712 6.43027 40.013 6.43027Z" fill="#23B8CC"/>
<path d="M40.013 6.43027C39.3549 6.43027 38.8222 6.94121 38.8222 7.56601C38.8222 8.1908 39.3579 8.70173 40.013 8.70173C40.6712 8.70173 41.2039 8.1908 41.2039 7.56601C41.2039 6.94121 40.6712 6.43027 40.013 6.43027Z" stroke="#23B8CC"/>
<path d="M40.3462 11.3407H38.5462C38.2921 11.3407 38.087 11.5363 38.087 11.7786V12.4151C38.087 12.6574 38.2921 12.853 38.5462 12.853H39.2197V23.6439C39.2197 23.8862 39.4247 24.0818 39.6788 24.0818H40.3462C40.6002 24.0818 40.8054 23.8862 40.8054 23.6439V11.7815C40.8054 11.5363 40.6002 11.3407 40.3462 11.3407Z" fill="#23B8CC"/>
<path d="M40.3462 11.3407H38.5462C38.2921 11.3407 38.087 11.5363 38.087 11.7786V12.4151C38.087 12.6574 38.2921 12.853 38.5462 12.853H39.2197V23.6439C39.2197 23.8862 39.4247 24.0818 39.6788 24.0818H40.3462C40.6002 24.0818 40.8054 23.8862 40.8054 23.6439V11.7815C40.8054 11.5363 40.6002 11.3407 40.3462 11.3407Z" stroke="#23B8CC"/>
<path d="M83.8065 11.0432C79.8759 11.0432 77.0228 13.8606 77.0228 17.7466C77.0228 21.6297 79.8759 24.4501 83.8065 24.4501C86.8249 24.4501 88.6646 22.9786 89.5585 21.9597C89.7146 21.7816 89.6717 21.5159 89.4667 21.3903L88.8422 21.0166C88.6768 20.9174 88.4595 20.9466 88.331 21.0896C87.737 21.7553 86.2677 23.037 83.8034 23.037C81.1555 23.037 78.8442 21.1276 78.4861 18.4532H90.1799C90.3911 18.4532 90.5656 18.2955 90.5779 18.097C90.5786 18.083 90.5793 18.0691 90.5799 18.0554C90.5853 17.9437 90.5901 17.8431 90.5901 17.7496C90.5901 13.9863 87.6116 11.0432 83.8065 11.0432ZM89.0442 17.0606H78.4861C78.8687 14.3103 81.1493 12.4564 83.8065 12.4564C86.6045 12.4564 88.6524 14.1993 89.0228 16.8971L89.0442 17.0606Z" fill="#23B8CC"/>
<path d="M83.8065 11.0432C79.8759 11.0432 77.0228 13.8606 77.0228 17.7466C77.0228 21.6297 79.8759 24.4501 83.8065 24.4501C86.8249 24.4501 88.6646 22.9786 89.5585 21.9597C89.7146 21.7816 89.6717 21.5159 89.4667 21.3903L88.8422 21.0166C88.6768 20.9174 88.4595 20.9466 88.331 21.0896C87.737 21.7553 86.2677 23.037 83.8034 23.037C81.1555 23.037 78.8442 21.1276 78.4861 18.4532H90.1799C90.3911 18.4532 90.5656 18.2955 90.5779 18.097C90.5786 18.083 90.5793 18.0691 90.5799 18.0554C90.5853 17.9437 90.5901 17.8431 90.5901 17.7496C90.5901 13.9863 87.6116 11.0432 83.8065 11.0432ZM89.0442 17.0606H78.4861C78.8687 14.3103 81.1493 12.4564 83.8065 12.4564C86.6045 12.4564 88.6524 14.1993 89.0228 16.8971L89.0442 17.0606Z" stroke="#23B8CC"/>
<path d="M1.67479 17.4752H13.4146C13.8221 17.4752 14.1595 17.1601 14.1595 16.7715C14.1595 16.3829 13.8221 16.0678 13.4146 16.0678H1.67479C1.56764 16.0678 1.51867 16.0066 1.49418 15.957C1.46969 15.9073 1.45439 15.8314 1.52479 15.7554L14.134 1.95161C14.1615 1.92532 14.2381 1.83773 14.3789 1.91072C14.5167 1.98371 14.4861 2.09466 14.4738 2.12969L12.5654 8.31082C12.4498 8.68512 12.676 9.07759 13.0691 9.18532C13.4587 9.29205 13.8655 9.07889 13.98 8.70808L15.8911 2.518C16.1146 1.78226 15.7901 1.04068 15.0829 0.675732C14.3789 0.307859 13.5493 0.45092 13.0228 1.029L0.413568 14.8329C-0.0211267 15.3088 -0.122149 15.9628 0.153361 16.5409C0.425811 17.116 1.0105 17.4752 1.67479 17.4752Z" fill="#23B8CC"/>
<path d="M20.6704 11.325H8.93064C8.52318 11.325 8.18571 11.64 8.18571 12.0286C8.18571 12.4173 8.52318 12.7323 8.93064 12.7323H20.6704C20.7776 12.7323 20.8266 12.7936 20.8511 12.8433C20.8755 12.8928 20.8909 12.9688 20.8204 13.0447L8.21124 26.8486C8.1837 26.8748 8.10717 26.9625 7.96635 26.8895C7.82859 26.8165 7.85921 26.7055 7.87145 26.6705L9.7798 20.4893C9.89536 20.1151 9.66929 19.7225 9.27607 19.6149C8.88653 19.5081 8.4797 19.7213 8.36521 20.092L6.4541 26.2821C6.23063 27.0179 6.55512 27.7595 7.26226 28.1244C7.96635 28.4923 8.79594 28.3493 9.32247 27.7711L21.9317 13.9672C22.3664 13.4914 22.4674 12.8374 22.1919 12.2593C21.9195 11.6841 21.3347 11.325 20.6704 11.325Z" fill="#23B8CC"/>
</svg>
